<svg width="300" height="300" viewBox="0 0 300 300" fill="none" xmlns="http://www.w3.org/2000/svg">
<path d="M150 300C232.843 300 300 232.843 300 150C300 67.1573 232.843 0 150 0C67.1573 0 0 67.1573 0 150C0 232.843 67.1573 300 150 300Z" fill="white"/>
<path d="M152.344 79.6875C149.766 79.6875 146.714 77.8008 145.559 75.4945L140.377 65.1305C139.223 62.8242 136.172 60.9375 133.594 60.9375H75C70.3125 60.9375 65.625 65.625 65.625 70.3125V75C65.625 77.5781 65.625 81.7969 65.625 84.375V217.969C65.625 220.547 72.4219 227.344 75 227.344H229.688C232.266 227.344 239.062 220.547 239.062 217.969V89.0625C239.062 82.0312 236.719 79.6875 229.688 79.6875H152.344Z" fill="#1B2C46"/>
<path d="M229.688 79.6875H220.312C227.344 79.6875 229.688 82.0312 229.688 89.0625V217.969C229.688 220.547 222.891 227.344 220.312 227.344H229.688C232.266 227.344 239.062 220.547 239.062 217.969V89.0625C239.062 82.0312 236.719 79.6875 229.688 79.6875Z" fill="#13233C"/>
<path d="M225 134.766C225 139.922 220.781 144.141 215.625 144.141H89.0625C83.9062 144.141 79.6875 139.922 79.6875 134.766V106.641C79.6875 101.484 83.9062 97.2656 89.0625 97.2656H215.625C220.781 97.2656 225 101.484 225 106.641V134.766Z" fill="#F5F5F5"/>
<path d="M229.688 117.188H75C70.3125 117.188 65.625 121.875 65.625 126.562V217.969C65.625 222.656 70.3125 227.344 75 227.344H229.688C234.375 227.344 239.062 222.656 239.062 217.969V126.562C239.062 121.875 234.375 117.188 229.688 117.188Z" fill="#081A37"/>
</svg>
